# xmcd
#
# Track frame offsets:
#	150
#	13222
#	26919
#	39605
#	49147
#	61737
#	75167
#	89800
#	101532
#	115650
#	129700
#	142490
#	153615
#	164970
#
# Disc length: 2364 seconds
#
# Revision: 1
# Processed by: cddbd v1.5.2PL0 Copyright (c) Steve Scherf et al.
# Submitted via: audiograbber 1.83.01
#
DISCID=ca093a0e
DTITLE=Trio Nordestino - Grandes Sucessos Vol. 2
DYEAR=1994
DGENRE=Forró
TTITLE0=Chinelo de Rosinha
TTITLE1=Forró Quentão
TTITLE2=Montanha Russa
TTITLE3=Chililique
TTITLE4=Arte Culinária
TTITLE5=O Trem Pega
TTITLE6=No Balanço
TTITLE7=Homem de Saia
TTITLE8=Ela Beliscando Ele
TTITLE9=Forró No Claro
TTITLE10=Conversa de Motorista
TTITLE11=Raimundo do Bole Bole
TTITLE12=Chupando o Gelo
TTITLE13=Por Causa da Pepita
EXTD=
EXTT0=
EXTT1=
EXTT2=
EXTT3=
EXTT4=
EXTT5=
EXTT6=
EXTT7=
EXTT8=
EXTT9=
EXTT10=
EXTT11=
EXTT12=
EXTT13=
PLAYORDER=
